<?xml version="1.0" standalone="no"?>
<!DOCTYPE svg PUBLIC "-//W3C//DTD SVG 20010904//EN"
 "http://www.w3.org/TR/2001/REC-SVG-20010904/DTD/svg10.dtd">
<svg version="1.0" xmlns="http://www.w3.org/2000/svg"
 width="1024.000000pt" height="1024.000000pt" viewBox="0 0 1024.000000 1024.000000"
 preserveAspectRatio="xMidYMid meet">

<g transform="translate(0.000000,1024.000000) scale(0.100000,-0.100000)"
fill="#000000" stroke="none">
<path d="M0 5120 l0 -5120 5120 0 5120 0 0 5120 0 5120 -5120 0 -5120 0 0
-5120z m5480 4400 c243 -31 510 -109 716 -210 110 -53 125 -58 155 -50 53 15
199 12 260 -6 66 -19 146 -64 214 -120 70 -56 112 -82 225 -133 216 -98 260
-121 328 -165 91 -60 137 -112 177 -200 59 -130 74 -255 46 -397 l-13 -66 42
-64 c57 -87 160 -301 209 -434 308 -836 211 -1752 -266 -2522 -204 -329 -511
-636 -839 -841 -92 -57 -297 -162 -316 -162 -7 0 6 9 30 20 23 10 45 26 48 35
3 8 10 12 15 9 5 -3 9 0 9 5 0 14 -1 14 -54 -9 -25 -10 -46 -18 -46 -16 0 3
44 28 98 57 375 201 675 462 914 794 439 611 612 1365 487 2120 -56 335 -202
721 -361 953 l-30 44 17 65 c26 104 29 179 12 269 -36 188 -129 287 -382 404
-245 114 -297 142 -396 217 -130 98 -169 115 -282 121 -73 4 -99 1 -159 -19
-92 -29 -230 -121 -297 -196 -41 -46 -53 -55 -64 -44 -10 10 -9 11 3 6 9 -3
20 3 28 15 14 22 3 27 -18 8 -7 -7 1 5 18 28 42 55 101 107 174 154 l59 39
-48 24 c-168 85 -438 168 -663 204 -161 25 -537 25 -700 -1 -161 -25 -356 -76
-482 -125 l-107 -42 60 -50 c33 -28 84 -83 113 -122 57 -76 87 -107 123 -126
35 -18 121 -13 253 14 291 59 566 13 715 -120 l40 -36 -45 26 -45 26 28 -25
c15 -14 27 -27 27 -30 0 -2 -35 16 -77 40 -186 106 -373 127 -668 74 -142 -26
-232 -24 -272 6 -16 11 -58 60 -95 110 -83 111 -135 158 -218 198 -54 26 -80
32 -152 34 -125 6 -168 -10 -347 -128 -183 -120 -203 -131 -353 -186 -240 -89
-362 -169 -465 -308 -65 -88 -87 -170 -80 -304 3 -80 11 -126 31 -181 l26 -74
-46 -71 c-25 -39 -79 -138 -119 -221 -261 -531 -328 -1154 -190 -1769 96 -425
301 -834 590 -1178 68 -81 90 -125 31 -60 -19 20 -34 30 -33 22 4 -24 40 -79
49 -74 4 3 5 -2 2 -10 -4 -11 -16 -3 -44 32 -21 26 -64 78 -95 115 -323 396
-527 867 -601 1387 -25 171 -29 528 -10 699 45 387 166 747 355 1060 l50 83
-24 85 c-59 204 -16 392 125 546 106 115 200 173 399 246 144 53 190 77 326
166 217 143 307 170 489 147 l94 -12 74 35 c185 85 443 149 712 175 108 10
387 5 506 -10z m-1383 -325 c59 -18 122 -61 154 -107 13 -18 16 -27 8 -21 -9
7 -19 10 -22 6 -4 -3 -24 5 -44 18 -59 38 -91 50 -158 56 -90 8 -154 -14 -264
-92 -144 -102 -214 -141 -345 -191 -290 -112 -386 -179 -456 -314 -19 -36 -25
-66 -28 -142 -5 -124 4 -154 113 -359 80 -151 116 -242 150 -379 9 -35 23 -77
31 -92 32 -61 121 -75 205 -32 28 14 47 19 43 12 -11 -17 -14 -38 -5 -38 3 0
18 8 31 17 20 13 22 14 13 2 -22 -27 -109 -69 -156 -75 -77 -11 -157 29 -192
96 -7 14 -23 72 -35 130 -28 135 -47 182 -120 310 -181 317 -185 523 -13 693
93 91 175 138 353 202 144 51 206 84 337 176 123 87 178 118 226 129 53 13
120 11 174 -5z m2530 -94 c33 -18 116 -82 184 -143 68 -60 152 -129 187 -153
39 -26 58 -45 50 -48 -9 -4 -7 -6 5 -6 9 -1 17 -6 17 -12 0 -6 -17 0 -37 12
-112 67 -191 121 -213 144 -33 35 -46 32 -20 -5 31 -43 67 -138 90 -232 11
-45 18 -83 16 -85 -2 -2 -13 27 -25 64 -48 147 -141 297 -238 385 -123 110
-380 80 -504 -60 -23 -26 -37 -37 -31 -26 17 32 119 122 166 146 131 68 249
74 353 19z m-2542 0 c-33 -3 -66 -10 -72 -14 -7 -5 -13 -4 -13 2 0 13 26 19
90 18 l55 0 -60 -6z m1290 -21 c170 -39 296 -100 376 -179 66 -66 84 -98 93
-166 l6 -49 -25 51 c-16 31 -58 82 -108 130 -96 92 -185 140 -372 202 -66 22
-115 40 -110 40 6 1 68 -13 140 -29z m1103 -22 c26 -6 56 -17 67 -25 25 -17
16 -17 -28 2 -20 8 -53 15 -72 15 -22 0 -34 4 -30 10 8 12 6 12 63 -2z m-81
-4 c-3 -3 -12 -4 -19 -1 -8 3 -5 6 6 6 11 1 17 -2 13 -5z m-601 -76 c28 -21
73 -66 99 -101 73 -94 72 -92 58 -83 -18 10 -16 2 8 -45 11 -22 18 -46 15 -52
-2 -7 -5 -5 -5 4 -1 9 -8 19 -16 23 -13 5 -13 1 0 -32 l15 -37 -20 25 c-11 14
-20 29 -20 34 0 6 -26 55 -57 110 -38 69 -77 122 -122 166 -67 65 -51 61 45
-12z m-1495 45 c13 -16 12 -17 -3 -4 -10 7 -18 15 -18 17 0 8 8 3 21 -13z
m-560 -86 c-10 -9 -11 -8 -5 6 3 10 9 15 12 12 3 -3 0 -11 -7 -18z m639 -12
c19 -19 32 -35 29 -35 -3 0 -20 16 -39 35 -19 19 -32 35 -29 35 3 0 20 -16 39
-35z m2784 -131 c179 -95 224 -133 268 -222 31 -64 33 -72 32 -177 -1 -131
-15 -191 -85 -352 -57 -130 -85 -232 -94 -346 -9 -107 -24 -122 -112 -114 -71
7 -146 42 -185 86 -19 21 -19 23 -2 8 32 -26 40 -20 13 10 l-24 27 35 -29 c74
-60 190 -86 220 -50 7 9 19 61 26 117 14 109 38 189 91 311 50 115 75 218 76
322 1 149 -46 223 -201 314 -172 102 -218 133 -267 183 l-50 50 55 -30 c30
-16 122 -65 204 -108z m-2096 109 c-10 -2 -26 -2 -35 0 -10 3 -2 5 17 5 19 0
27 -2 18 -5z m59 -9 c-3 -3 -12 -4 -19 -1 -8 3 -5 6 6 6 11 1 17 -2 13 -5z
m949 -100 c1 -9 6 -19 10 -22 4 -4 4 1 1 11 -9 26 0 22 88 -34 156 -100 282
-253 349 -423 50 -125 100 -387 110 -571 5 -100 3 -88 -20 98 -15 126 -46 304
-60 342 -4 11 -14 29 -23 39 -9 11 -10 16 -3 12 15 -9 15 -9 -7 55 -30 86 -42
108 -57 102 -9 -3 -11 -10 -6 -17 14 -18 23 -48 12 -41 -6 3 -10 11 -10 16 0
5 -12 28 -26 50 -18 30 -23 44 -15 52 8 8 11 5 11 -12 0 -12 4 -19 10 -16 6 3
7 -1 4 -9 -4 -11 0 -16 10 -16 9 0 16 3 16 7 0 13 -62 103 -72 103 -5 0 -7 4
-4 8 2 4 -28 40 -67 80 -51 51 -76 69 -86 63 -17 -11 -4 -34 15 -27 7 3 16 0
20 -6 4 -7 3 -8 -4 -4 -7 4 -12 2 -12 -3 0 -6 5 -11 12 -11 6 0 9 -2 6 -6 -7
-7 -144 95 -141 106 1 4 -6 7 -15 7 -37 0 -44 3 -38 19 3 9 2 12 -5 9 -6 -4
-19 1 -29 10 -10 9 -22 15 -27 12 -5 -3 -22 21 -39 52 l-30 58 60 -39 c33 -21
61 -46 62 -54z m-836 61 c14 -8 21 -14 15 -14 -5 0 -21 6 -35 14 -14 8 -20 14
-15 14 6 0 21 -6 35 -14z m1740 -151 c17 -34 30 -66 30 -70 -1 -5 -14 18 -31
51 -17 33 -40 76 -51 95 l-20 35 21 -25 c12 -14 35 -53 51 -86z m-993 -56 c-3
-7 -5 -2 -5 12 0 14 2 19 5 13 2 -7 2 -19 0 -25z m378 -113 c22 -23 42 -48 43
-56 2 -8 2 -12 0 -9 -2 3 -31 34 -64 70 -62 68 -47 64 21 -5z m183 -391 c-3
-26 -4 -25 -14 15 -10 38 -10 41 3 28 8 -8 13 -27 11 -43z m19 -106 c-3 -7 -5
-2 -5 12 0 14 2 19 5 13 2 -7 2 -19 0 -25z m15 -43 c3 -13 1 -22 -3 -19 -9 5
-13 44 -5 44 2 0 6 -11 8 -25z m-189 -81 c80 -52 129 -150 148 -296 18 -133
-17 -264 -79 -297 -16 -8 -21 -6 -31 16 -10 22 -9 29 7 47 11 12 25 32 33 46
19 37 17 192 -4 260 -23 79 -86 163 -141 189 -42 21 -45 21 -87 5 -24 -9 -52
-25 -61 -36 -10 -11 -18 -16 -18 -11 0 15 71 94 94 104 32 13 97 1 139 -27z
m-1223 -25 c87 -39 136 -110 166 -236 52 -221 -56 -429 -235 -450 -61 -7 -162
19 -222 58 -83 53 -149 179 -149 285 0 97 62 231 137 294 83 70 211 91 303 49z
m1440 -177 c5 -48 10 -150 10 -226 0 -77 3 -136 8 -132 4 4 9 74 13 154 l5
147 3 -150 2 -150 59 -42 c106 -75 204 -214 229 -324 45 -194 -59 -433 -234
-538 -49 -30 -66 -35 -124 -35 -36 -1 -67 3 -68 9 -1 5 -9 12 -19 15 -9 4 13
7 49 7 86 1 140 27 209 102 100 108 154 247 145 374 -9 128 -101 271 -229 357
l-62 41 2 137 c3 122 -6 250 -23 352 -5 30 -4 32 5 12 5 -13 14 -63 20 -110z
m-260 78 c72 -39 27 -137 -53 -116 -48 12 -55 89 -10 115 23 13 40 14 63 1z
m-2820 -194 c0 -2 -8 -10 -17 -17 -16 -13 -17 -12 -4 4 13 16 21 21 21 13z
m2565 -162 c16 -12 17 -14 3 -14 -9 0 -20 5 -23 10 -3 6 -16 10 -28 10 -12 0
-29 5 -37 11 -11 7 -4 8 25 3 22 -4 49 -13 60 -20z m105 -71 c19 -17 50 -39
68 -50 39 -24 30 -30 -58 -40 -41 -4 -59 -2 -65 7 -6 10 -1 12 19 8 14 -3 26
-2 26 1 0 4 19 5 41 3 29 -3 40 -1 35 7 -4 6 -18 8 -32 5 -14 -4 -31 -1 -39 6
-17 14 -20 30 -4 30 5 0 8 -4 4 -9 -3 -5 -1 -12 4 -15 17 -11 5 23 -15 41 -31
29 -74 84 -74 95 0 6 12 -5 28 -24 15 -19 43 -48 62 -65z m-110 37 c11 -8 7
-9 -15 -4 -37 8 -45 14 -19 14 10 0 26 -5 34 -10z m-15 -30 c3 -5 1 -10 -4
-10 -6 0 -11 5 -11 10 0 6 2 10 4 10 3 0 8 -4 11 -10z m-42 -7 c-13 -2 -33 -2
-45 0 -13 2 -3 4 22 4 25 0 35 -2 23 -4z m-2468 -134 c-6 -17 -9 -19 -17 -8
-7 10 -8 8 -4 -10 6 -27 -49 -145 -64 -136 -5 3 -12 0 -16 -6 -5 -8 -3 -9 6
-4 8 5 11 3 8 -6 -3 -8 -10 -13 -16 -12 -6 2 -9 -3 -6 -11 3 -7 -11 -30 -30
-51 -20 -21 -36 -39 -36 -40 0 -2 24 2 53 9 60 14 111 39 146 70 45 40 7 -15
-47 -67 l-49 -48 -71 0 c-44 0 -85 6 -109 17 l-38 17 39 8 c21 5 50 18 66 29
15 11 31 16 35 12 5 -4 5 -1 1 6 -4 7 3 25 18 43 15 17 46 71 70 121 24 49 46
83 49 76 3 -8 6 -5 6 6 1 11 4 17 7 13 3 -3 3 -15 -1 -28z m3001 -35 c83 -34
134 -92 134 -151 l-1 -28 -13 31 c-18 40 -54 68 -124 96 -50 20 -74 23 -192
22 -77 0 -147 -6 -162 -12 -17 -7 -37 -8 -50 -3 -21 8 -20 9 17 20 139 41 324
53 391 25z m-2971 -359 c-8 -33 -18 -103 -24 -155 -9 -83 -9 -97 6 -110 9 -8
13 -10 9 -3 -5 10 57 123 68 123 2 0 -14 -48 -36 -106 -22 -61 -42 -134 -45
-172 l-6 -65 -23 45 c-29 58 -47 167 -39 236 8 63 45 177 76 232 13 22 24 39
25 37 1 -1 -4 -29 -11 -62z m2725 -274 c-44 -63 -149 -127 -256 -155 -32 -9
-108 -18 -169 -21 -72 -2 -95 -1 -65 4 42 7 43 8 11 9 -56 3 -32 10 73 21 152
17 225 47 365 148 l24 18 -13 -25 c-12 -25 -12 -25 16 3 37 35 41 34 14 -2z
m-2517 -235 c60 -129 167 -267 246 -318 25 -15 38 -28 30 -28 -29 0 -168 101
-218 158 -79 89 -158 274 -138 323 3 8 6 3 6 -11 1 -14 6 -32 12 -40 8 -11 9
-6 5 20 -17 93 -15 110 3 43 11 -39 35 -105 54 -147z m2651 -68 c-15 -29 -35
-80 -45 -113 -16 -60 -17 -60 -29 -33 -11 23 -10 35 5 74 11 29 20 42 25 34 5
-8 18 8 36 44 15 30 30 54 32 52 2 -2 -9 -28 -24 -58z m-189 -151 c87 -89 134
-249 114 -381 -17 -103 -70 -175 -159 -215 -82 -37 -243 -21 -302 30 l-23 20
32 -16 c43 -20 50 -19 22 5 -29 23 -27 24 35 5 72 -22 171 -19 221 5 77 37
134 130 135 221 0 64 -34 191 -70 257 -16 30 -27 59 -23 65 3 5 1 7 -4 4 -6
-4 -16 0 -23 8 -7 8 -9 15 -4 15 5 0 0 7 -10 15 -13 10 -15 15 -6 15 8 0 37
-24 65 -53z m-205 -142 c0 -5 -5 -3 -10 5 -5 8 -10 20 -10 25 0 6 5 3 10 -5 5
-8 10 -19 10 -25z m18 -40 c-3 -3 -9 2 -12 12 -6 14 -5 15 5 6 7 -7 10 -15 7
-18z m-301 -7 c-3 -8 -6 -5 -6 6 -1 11 2 17 5 13 3 -3 4 -12 1 -19z m43 -94
c0 -8 4 -13 9 -9 5 3 13 0 17 -6 4 -8 3 -9 -4 -5 -7 4 -12 3 -12 -3 0 -5 5
-13 10 -16 6 -4 8 -11 4 -16 -3 -6 7 -7 25 -4 30 5 44 -8 19 -18 -8 -4 -9 -6
-2 -6 7 -1 19 10 28 24 9 14 24 25 34 24 13 0 11 -3 -5 -9 -24 -10 -30 -25
-13 -35 6 -3 10 1 10 9 0 9 9 16 20 16 11 0 20 -4 20 -10 0 -5 -8 -7 -17 -3
-10 3 0 -7 22 -23 22 -15 44 -33 48 -41 6 -10 13 -10 27 -3 15 8 18 7 14 -3
-3 -9 -17 -13 -34 -12 -28 2 -29 1 -15 -18 22 -31 18 -43 -5 -16 -10 13 -19
18 -20 12 0 -7 5 -13 10 -13 6 0 10 -7 10 -16 0 -9 -5 -12 -12 -8 -10 6 -9 3
0 -9 11 -12 19 -14 39 -6 22 8 24 8 14 -5 -11 -13 -9 -15 10 -11 12 2 29 0 38
-6 14 -9 13 -10 -3 -4 -11 3 -23 0 -27 -6 -18 -30 -166 75 -225 160 -22 31
-57 124 -44 116 5 -3 10 -13 10 -21z m327 -16 c-3 -7 -5 -2 -5 12 0 14 2 19 5
13 2 -7 2 -19 0 -25z m-30 -10 c-3 -7 -5 -2 -5 12 0 14 2 19 5 13 2 -7 2 -19
0 -25z m-233 3 c3 -5 -1 -11 -9 -14 -9 -4 -12 -1 -8 9 6 16 10 17 17 5z m243
-43 c-3 -8 -6 -5 -6 6 -1 11 2 17 5 13 3 -3 4 -12 1 -19z m-69 -123 c-3 -3 -9
2 -12 12 -6 14 -5 15 5 6 7 -7 10 -15 7 -18z m7 -389 c5 -42 1 -60 -19 -101
l-24 -50 -1 114 c-1 120 4 135 19 54 9 -44 9 -43 5 22 -4 79 9 52 20 -39z
m-498 -163 c-20 -2 -52 -2 -70 0 -17 2 0 4 38 4 39 0 53 -2 32 -4z m602 -110
c34 -101 44 -229 32 -392 -10 -139 -21 -196 -21 -115 0 21 -4 34 -8 27 -4 -6
-7 68 -7 165 -1 166 -2 182 -28 257 -15 44 -34 91 -41 104 -12 22 -12 28 2 49
l15 23 18 -28 c9 -15 27 -56 38 -90z m-409 51 c0 -2 -9 0 -20 6 -11 6 -20 13
-20 16 0 2 9 0 20 -6 11 -6 20 -13 20 -16z m-233 10 c-3 -3 -12 -4 -19 -1 -8
3 -5 6 6 6 11 1 17 -2 13 -5z m40 0 c-3 -3 -12 -4 -19 -1 -8 3 -5 6 6 6 11 1
17 -2 13 -5z m296 -109 c24 -35 15 -27 -44 40 -32 37 -35 42 -10 20 18 -16 42
-43 54 -60z m37 -55 c6 -11 8 -20 6 -20 -3 0 -10 9 -16 20 -6 11 -8 20 -6 20
3 0 10 -9 16 -20z m-463 -42 c7 -5 22 -30 33 -54 l22 -44 68 0 c66 0 68 1 80
30 22 53 49 80 80 80 72 0 99 -99 49 -178 -11 -18 -10 -26 9 -60 29 -52 29
-103 -1 -138 -44 -51 -100 -30 -134 52 l-18 44 -70 0 -70 0 -20 -52 c-34 -88
-110 -106 -141 -33 -19 47 -18 73 9 125 l22 45 -23 46 c-21 41 -22 52 -12 87
17 65 72 88 117 50z m720 -380 c-3 -8 -6 -5 -6 6 -1 11 2 17 5 13 3 -3 4 -12
1 -19z m-196 -1266 c133 -58 214 -205 226 -412 7 -113 -14 -237 -53 -315 -65
-130 -194 -205 -354 -205 -259 0 -410 171 -410 465 0 352 164 523 475 493 39
-3 91 -15 116 -26z m922 -6 c69 -33 109 -78 136 -151 12 -30 21 -59 21 -64 0
-4 -35 -18 -77 -30 -43 -12 -86 -24 -95 -27 -12 -4 -22 7 -36 38 -24 55 -47
75 -99 86 -92 21 -166 -16 -204 -100 -22 -48 -24 -66 -24 -198 1 -126 3 -151
22 -190 24 -51 65 -94 106 -109 44 -17 127 -13 175 9 l42 19 0 81 0 82 -75 -4
-75 -3 0 78 0 77 175 0 175 0 0 -194 0 -194 -31 -27 c-77 -64 -202 -105 -324
-105 -129 0 -234 43 -298 123 -77 94 -97 165 -97 347 0 198 33 302 122 386 90
85 150 105 299 101 92 -3 114 -7 162 -31z m-4943 -71 l0 -85 -170 0 -170 0 0
-111 0 -110 140 3 140 3 0 -82 0 -83 -125 -1 c-69 -1 -131 -2 -137 -3 -10 -1
-14 -46 -16 -183 l-2 -183 -100 0 -99 0 0 458 c1 251 2 459 4 462 2 3 123 4
269 2 l266 -3 0 -84z m559 74 c123 -26 192 -113 199 -254 5 -104 -20 -176 -82
-233 -23 -21 -48 -41 -56 -44 -9 -3 14 -58 82 -191 l96 -187 -107 0 -108 0
-81 170 -81 170 -56 0 -55 0 0 -170 0 -170 -97 0 -98 0 0 460 0 460 197 0
c108 0 219 -5 247 -11z m901 -69 l0 -80 -77 -2 c-43 -1 -85 -2 -93 -4 -8 -1
-48 -2 -87 -3 l-73 -1 0 -95 0 -95 135 0 135 0 0 -85 0 -85 -135 0 -135 0 0
-115 0 -116 170 3 170 3 0 -82 0 -83 -270 0 -270 0 0 460 0 460 265 0 265 0 0
-80z m675 1 l0 -78 -89 -7 c-49 -3 -120 -6 -158 -6 l-68 0 0 -95 0 -95 135 0
135 0 0 -85 0 -85 -135 0 -135 0 0 -115 0 -116 168 2 167 1 3 -81 3 -81 -271
0 -270 0 0 460 0 460 258 0 257 0 0 -79z m899 63 c128 -33 215 -105 257 -213
28 -68 38 -278 19 -373 -32 -166 -136 -273 -298 -307 -29 -6 -134 -11 -232
-11 l-180 0 0 460 0 460 186 0 c137 0 202 -4 248 -16z m2746 -63 l0 -78 -160
-8 -160 -7 0 -94 0 -94 135 0 135 0 0 -85 0 -85 -135 0 -135 0 0 -115 0 -116
170 3 170 3 0 -82 0 -83 -270 0 -270 0 0 460 0 460 260 0 260 0 0 -79z m996
-383 l152 -458 -102 0 -102 0 -28 95 -29 95 -158 0 c-109 0 -159 -3 -159 -11
0 -6 -12 -49 -26 -95 l-26 -84 -99 0 c-55 0 -99 3 -99 8 0 4 68 211 152 460
l153 452 109 -2 110 -3 152 -457z m474 2 l0 -460 -100 0 -100 0 0 460 0 460
100 0 100 0 0 -460z m-5386 -796 c-63 -139 -79 -219 -79 -399 0 -176 16 -256
76 -381 36 -76 37 -94 5 -94 -52 0 -157 164 -193 300 -27 101 -24 284 5 380
49 157 166 314 209 279 8 -8 2 -30 -23 -85z m2796 81 c38 -20 101 -100 135
-171 93 -198 85 -459 -21 -648 -41 -74 -107 -138 -136 -134 -28 4 -28 2 16
103 53 121 67 186 73 334 8 186 -18 314 -94 464 -13 26 -21 52 -18 57 8 13 11
13 45 -5z m-619 -435 c75 -217 140 -405 144 -417 6 -23 5 -23 -82 -23 l-89 0
-33 95 -34 95 -154 -2 -155 -3 -29 -92 -30 -93 -89 0 c-50 0 -90 4 -90 8 0 4
32 100 71 212 149 431 209 605 213 615 2 6 44 8 112 5 l108 -5 137 -395z
m-1531 325 l0 -75 -155 0 -155 0 0 -100 0 -100 125 0 125 0 0 -75 0 -75 -125
0 -125 0 0 -170 0 -170 -83 0 -83 0 -2 420 -1 420 239 0 240 0 0 -75z m575 52
c148 -48 232 -163 249 -343 18 -181 -50 -340 -175 -409 -82 -44 -147 -56 -346
-62 l-183 -6 0 423 0 422 203 -4 c151 -4 215 -9 252 -21z m1405 -397 l0 -420
-85 0 -85 0 0 420 0 420 85 0 85 0 0 -420z"/>
<path d="M4216 9097 c3 -10 9 -15 12 -12 3 3 0 11 -7 18 -10 9 -11 8 -5 -6z"/>
<path d="M3446 7531 c-3 -5 0 -11 7 -14 8 -3 14 1 14 9 0 16 -13 19 -21 5z"/>
<path d="M7020 7655 c0 -2 10 -10 23 -16 20 -11 21 -11 8 4 -13 16 -31 23 -31
12z"/>
<path d="M6126 8752 c-3 -4 4 -9 15 -9 23 -2 25 3 4 10 -8 4 -16 3 -19 -1z"/>
<path d="M6161 8718 c-1 -17 9 -22 36 -19 8 1 10 -5 7 -14 -6 -16 4 -19 31 -9
13 5 9 11 -17 30 -21 16 -34 20 -39 13 -4 -8 -8 -7 -12 2 -4 10 -6 9 -6 -3z"/>
<path d="M4980 7856 c-99 -26 -141 -72 -175 -190 -24 -81 -17 -214 13 -272 26
-50 92 -109 139 -125 19 -6 65 -9 103 -7 154 8 240 134 227 333 -12 206 -133
308 -307 261z m194 -97 c72 -57 -16 -157 -92 -103 -32 22 -30 76 4 103 15 12
34 21 44 21 10 0 29 -9 44 -21z"/>
<path d="M6620 7329 c0 -5 5 -7 10 -4 6 3 10 8 10 11 0 2 -4 4 -10 4 -5 0 -10
-5 -10 -11z"/>
<path d="M6220 7320 c0 -5 5 -10 11 -10 5 0 7 5 4 10 -3 6 -8 10 -11 10 -2 0
-4 -4 -4 -10z"/>
<path d="M3507 7145 c-15 -30 -25 -55 -22 -55 7 0 57 101 53 106 -2 2 -16 -21
-31 -51z"/>
<path d="M6392 6173 c-6 -20 -7 -32 -2 -27 10 10 25 64 18 64 -3 0 -10 -16
-16 -37z"/>
<path d="M5880 5721 c0 -6 4 -13 10 -16 6 -3 7 1 4 9 -7 18 -14 21 -14 7z"/>
<path d="M5956 5708 c3 -5 10 -6 15 -3 13 9 11 12 -6 12 -8 0 -12 -4 -9 -9z"/>
<path d="M5985 5699 c-4 -6 -4 -13 -1 -16 3 -4 6 -1 6 6 0 7 5 9 12 5 7 -4 8
-3 4 4 -9 15 -13 15 -21 1z"/>
<path d="M5692 3019 c-86 -43 -115 -116 -116 -289 -1 -115 1 -129 25 -181 38
-81 84 -113 168 -117 59 -3 71 0 112 26 55 36 85 93 99 191 17 120 -15 275
-68 334 -51 57 -147 72 -220 36z"/>
<path d="M2252 2898 l3 -133 71 1 c86 0 130 17 151 58 22 42 21 125 -2 160
-25 37 -52 46 -146 46 l-80 0 3 -132z"/>
<path d="M4740 2725 l0 -294 81 4 c184 11 241 83 242 300 0 115 -13 171 -50
216 -42 49 -95 69 -190 69 l-83 0 0 -295z"/>
<path d="M8395 2824 c-27 -97 -51 -182 -53 -190 -3 -11 18 -14 107 -14 61 0
111 4 111 9 0 5 -22 84 -50 177 -27 93 -50 174 -50 181 0 7 -3 13 -7 13 -5 0
-30 -79 -58 -176z"/>
<path d="M5727 1820 c-4 -8 -27 -85 -53 -170 -26 -85 -49 -161 -51 -167 -4
-10 22 -13 110 -13 l115 0 -54 173 c-66 209 -60 195 -67 177z"/>
<path d="M4740 1565 l0 -265 98 1 c53 0 111 6 129 12 79 30 124 104 131 219 6
94 -10 165 -50 219 -43 60 -92 79 -210 79 l-98 0 0 -265z"/>
</g>
</svg>
